<?xml version="1.0" encoding="UTF-8" standalone="no"?>
<!DOCTYPE svg PUBLIC "-//W3C//DTD SVG 1.1//EN" "http://www.w3.org/Graphics/SVG/1.1/DTD/svg11.dtd">
<svg xmlns="http://www.w3.org/2000/svg" xmlns:xlink="http://www.w3.org/1999/xlink" version="1.1" width="500" height="300" viewBox="0 0 500 300" xml:space="preserve">
<desc>Created with Fabric.js 3.6.3</desc>
<defs>
</defs>
<g transform="matrix(0.49061128592387493 0 0 0.49061128592387493 250.89726165396624 142.1188194251958)">
<g style="">
		<g transform="matrix(0.051115861350236796 -0.9986927298816305 0.9986927298816305 0.051115861350236796 -0.006247642608244064 0.003494473616129312)">
<circle style="stroke: none; stroke-width: 1; stroke-dasharray: none; stroke-linecap: butt; stroke-dashoffset: 0; stroke-linejoin: miter; stroke-miterlimit: 4; fill: rgb(0,0,0); fill-rule: nonzero; opacity: 1;" cx="0" cy="0" r="103.17"/>
</g>
		<g transform="matrix(1 0 0 1 -0.0049999999999954525 0.09499999999999886)">
<circle style="stroke: none; stroke-width: 1; stroke-dasharray: none; stroke-linecap: butt; stroke-dashoffset: 0; stroke-linejoin: miter; stroke-miterlimit: 4; fill: rgb(64,183,211); fill-rule: nonzero; opacity: 1;" cx="0" cy="0" r="93.42"/>
</g>
		<g transform="matrix(1 0 0 1 -0.0049999999999954525 0.09499999999999886)">
<circle style="stroke: none; stroke-width: 1; stroke-dasharray: none; stroke-linecap: butt; stroke-dashoffset: 0; stroke-linejoin: miter; stroke-miterlimit: 4; fill: rgb(255,255,255); fill-rule: nonzero; opacity: 1;" cx="0" cy="0" r="82.29"/>
</g>
</g>
</g>
<g transform="matrix(0.8786666334208924 0 0 0.8786666334208924 250.89726165396627 142.1188194251958)">
<g style="">
		<g transform="matrix(1 0 0 1 0.4999944658763269 0.5000043130798133)">
<path style="stroke: none; stroke-width: 1; stroke-dasharray: none; stroke-linecap: butt; stroke-dashoffset: 0; stroke-linejoin: miter; stroke-miterlimit: 4; fill: rgb(0,0,0); fill-rule: nonzero; opacity: 1;" transform=" translate(-31.999994465876323, -32.00000431307981)" d="M 61.95 24.535 L 58 20.586 V 13 a 5.006 5.006 0 0 0 -5 -5 H 11 a 5 5 0 0 0 -4.981 4.808 v 0.018 c 0 0.059 -0.018 7.76 -0.018 7.76 L 2.05 24.535 A 6.958 6.958 0 0 0 0 29.485 v 0.777 a 6.991 6.991 0 0 0 0.209 1.7 L 3.545 45.3 a 7.043 7.043 0 0 1 0 3.4 L 2.03 54.758 A 1 1 0 0 0 3 56 H 20 a 1 1 0 0 0 1 -1.091 L 20 43.962 A 6.48 6.48 0 0 0 21 40.5 V 39 a 5.012 5.012 0 0 0 -1.013 -3 H 44.013 A 5.012 5.012 0 0 0 43 39 v 1.5 a 6.48 6.48 0 0 0 1 3.462 L 43 54.909 A 1 1 0 0 0 44 56 H 61 a 1 1 0 0 0 0.97 -1.242 L 60.455 48.7 a 7.043 7.043 0 0 1 0 -3.4 l 3.336 -13.343 a 6.991 6.991 0 0 0 0.209 -1.7 v -0.777 A 6.958 6.958 0 0 0 61.95 24.535 Z M 11 10 H 53 a 3 3 0 0 1 3 3 V 31 a 3.006 3.006 0 0 1 -0.277 1.256 L 55.146 28.8 a 5.006 5.006 0 0 0 -0.932 -2.178 l -4.574 -6.1 a 3.8 3.8 0 1 0 -6.08 4.559 l 1.918 2.557 a 3.961 3.961 0 0 1 0.733 1.714 l 0.31 1.854 a 3.921 3.921 0 0 1 -0.593 2.8 H 18.072 a 3.921 3.921 0 0 1 -0.593 -2.8 l 0.31 -1.854 a 3.961 3.961 0 0 1 0.733 -1.714 L 20.44 25.08 a 3.8 3.8 0 1 0 -6.08 -4.559 l -4.574 6.1 A 5.015 5.015 0 0 0 8.854 28.8 l -0.577 3.458 A 3.006 3.006 0 0 1 8 31 V 14.934 a 2.975 2.975 0 0 1 1 2.207 V 22 a 1 1 0 0 0 2 0 V 17.141 A 4.994 4.994 0 0 0 8.773 12.98 L 8.051 12.5 A 3 3 0 0 1 11 10 Z M 4.281 54 l 1.2 -4.817 a 9.033 9.033 0 0 0 0 -4.366 L 2.149 31.475 A 5.017 5.017 0 0 1 2 30.262 v -0.777 a 4.973 4.973 0 0 1 1.464 -3.536 L 6 23.414 V 31 a 5.017 5.017 0 0 0 2.5 4.33 a 1 1 0 0 0 1.5 -0.865 v -0.382 l 0.826 -4.957 a 3.025 3.025 0 0 1 0.559 -1.307 l 4.575 -6.1 A 1.81 1.81 0 0 1 17.4 21 a 1.8 1.8 0 0 1 1.44 2.881 l -1.918 2.557 a 5.957 5.957 0 0 0 -1.106 2.584 l -0.309 1.855 A 5.913 5.913 0 0 0 17.8 36.6 A 3.017 3.017 0 0 1 19 39 v 1.5 a 4.486 4.486 0 0 1 -2.455 4.01 a 1 1 0 1 0 0.91 1.781 a 6.545 6.545 0 0 0 0.71 -0.427 L 18.905 54 Z M 62 30.262 a 5.017 5.017 0 0 1 -0.149 1.213 L 58.515 44.817 a 9.033 9.033 0 0 0 0 4.366 L 59.719 54 H 45.1 l 0.74 -8.136 a 6.545 6.545 0 0 0 0.71 0.427 a 1 1 0 1 0 0.91 -1.781 A 4.486 4.486 0 0 1 45 40.5 V 39 a 3.017 3.017 0 0 1 1.2 -2.4 a 5.913 5.913 0 0 0 2.293 -5.723 l -0.309 -1.855 a 5.957 5.957 0 0 0 -1.106 -2.584 L 45.16 23.881 A 1.8 1.8 0 0 1 46.6 21 a 1.81 1.81 0 0 1 1.44 0.72 l 4.575 6.1 a 3.016 3.016 0 0 1 0.559 1.306 L 54 34.083 v 0.382 a 1 1 0 0 0 1.5 0.865 A 5.017 5.017 0 0 0 58 31 V 23.414 l 2.535 2.535 A 4.97 4.97 0 0 1 62 29.485 Z" stroke-linecap="round"/>
</g>
		<g transform="matrix(1 0 0 1 10.50316510167368 -9.080600179186051)">
<path style="stroke: none; stroke-width: 1; stroke-dasharray: none; stroke-linecap: butt; stroke-dashoffset: 0; stroke-linejoin: miter; stroke-miterlimit: 4; fill: rgb(0,0,0); fill-rule: nonzero; opacity: 1;" transform=" translate(-42.00316510167368, -22.41939982081395)" d="M 42 27.317 a 0.989 0.989 0 0 0 0.553 -0.167 a 1 1 0 0 0 0.28 -1.386 a 5 5 0 0 1 0.834 -6.491 a 1 1 0 1 0 -1.334 -1.49 a 7 7 0 0 0 -1.166 9.088 A 1 1 0 0 0 42 27.317 Z" stroke-linecap="round"/>
</g>
		<g transform="matrix(1 0 0 1 -9.49624766393504 -9.074310453877601)">
<path style="stroke: none; stroke-width: 1; stroke-dasharray: none; stroke-linecap: butt; stroke-dashoffset: 0; stroke-linejoin: miter; stroke-miterlimit: 4; fill: rgb(0,0,0); fill-rule: nonzero; opacity: 1;" transform=" translate(-22.00375233606496, -22.4256895461224)" d="M 22 23 a 4.978 4.978 0 0 1 -0.833 2.764 a 1 1 0 0 0 0.28 1.386 a 1 1 0 0 0 1.386 -0.279 a 7 7 0 0 0 -1.166 -9.088 a 1 1 0 0 0 -1.334 1.49 A 5.008 5.008 0 0 1 22 23 Z" stroke-linecap="round"/>
</g>
		<g transform="matrix(1 0 0 1 0.5 -4.5)">
<path style="stroke: none; stroke-width: 1; stroke-dasharray: none; stroke-linecap: butt; stroke-dashoffset: 0; stroke-linejoin: miter; stroke-miterlimit: 4; fill: rgb(0,0,0); fill-rule: nonzero; opacity: 1;" transform=" translate(-32, -27)" d="M 31 23 v 3 H 28 a 1 1 0 0 0 -1 1 v 4 a 1 1 0 0 0 1 1 h 8 a 1 1 0 0 0 1 -1 V 23 a 1 1 0 0 0 -1 -1 H 32 A 1 1 0 0 0 31 23 Z m -2 5 h 2 v 2 H 29 Z m 6 2 H 33 V 28 h 2 Z m -2 -6 h 2 v 2 H 33 Z" stroke-linecap="round"/>
</g>
		<g transform="matrix(1 0 0 1 -2.5 -16.5)">
<path style="stroke: none; stroke-width: 1; stroke-dasharray: none; stroke-linecap: butt; stroke-dashoffset: 0; stroke-linejoin: miter; stroke-miterlimit: 4; fill: rgb(0,0,0); fill-rule: nonzero; opacity: 1;" transform=" translate(-29, -15)" d="M 27 18 h 4 a 1 1 0 0 0 1 -1 V 13 a 1 1 0 0 0 -1 -1 H 27 a 1 1 0 0 0 -1 1 v 4 A 1 1 0 0 0 27 18 Z m 1 -4 h 2 v 2 H 28 Z" stroke-linecap="round"/>
</g>
</g>
</g>
<g transform="matrix(0.30821503810103473 0 0 0.059002436668381446 250.8972616539662 182.75090376762628)">
<rect style="stroke: none; stroke-width: 1; stroke-dasharray: none; stroke-linecap: butt; stroke-dashoffset: 0; stroke-linejoin: miter; stroke-miterlimit: 4; fill: rgb(255,255,255); fill-rule: evenodd; opacity: 1;" x="-393.5" y="-393.5" rx="0" ry="0" width="787" height="787"/>
</g>
<g transform="matrix(0.3 0 0 0.3 250.2972616539663 194.4870164849108)" style=""><path fill="#263248" opacity="1" d="M-218.12 8.80L-228.84 8.80L-228.84-10.13L-227.00-10.13L-227.00 7.11L-218.12 7.11L-218.12 8.80Z"/><path fill="#263248" opacity="1" d="M-208.38-9.05L-208.38-9.05Q-208.38-8.35-208.68-8.10Q-208.97-7.84-209.64-7.84L-209.64-7.84Q-210.34-7.84-210.60-8.16Q-210.87-8.47-210.87-9.05L-210.87-9.05Q-210.87-9.66-210.60-9.94Q-210.32-10.22-209.64-10.22L-209.64-10.22Q-208.94-10.22-208.66-9.95Q-208.38-9.67-208.38-9.05ZM-208.75 8.80L-210.51 8.80L-210.51-5.55L-208.75-5.55L-208.75 8.80Z"/><path fill="#263248" opacity="1" d="M-192.21-11.34L-192.80-9.85Q-192.99-9.96-193.26-10.07Q-193.53-10.18-193.82-10.26Q-194.11-10.34-194.42-10.39Q-194.73-10.44-195.02-10.44L-195.02-10.44Q-195.65-10.44-196.07-10.26Q-196.49-10.08-196.75-9.69Q-197.01-9.29-197.12-8.65Q-197.23-8.01-197.23-7.08L-197.23-7.08L-197.23-5.55L-193.90-5.55L-193.90-4.03L-197.23-4.03L-197.23 8.80L-199.00 8.80L-199.00-4.03L-201.24-4.03L-201.24-5.55L-199.00-5.55L-199.00-7.13Q-199.00-8.38-198.79-9.29Q-198.59-10.21-198.11-10.81Q-197.64-11.41-196.88-11.70Q-196.12-11.99-195.02-11.99L-195.02-11.99Q-194.20-11.99-193.45-11.79Q-192.71-11.59-192.21-11.34L-192.21-11.34Z"/><path fill="#263248" opacity="1" d="M-176.24 1.63L-185.48 1.63Q-185.48 3.20-185.28 4.35Q-185.08 5.50-184.61 6.25Q-184.14 6.99-183.36 7.35Q-182.58 7.70-181.42 7.70L-181.42 7.70Q-180.85 7.70-180.37 7.60Q-179.89 7.50-179.47 7.26Q-179.06 7.02-178.67 6.64Q-178.29 6.27-177.92 5.72L-177.92 5.72L-176.51 6.64Q-176.90 7.25-177.35 7.73Q-177.81 8.21-178.41 8.54Q-179.00 8.86-179.76 9.04Q-180.52 9.22-181.50 9.22L-181.50 9.22Q-182.92 9.22-184.00 8.81Q-185.08 8.40-185.82 7.50Q-186.55 6.61-186.92 5.19Q-187.30 3.76-187.30 1.74L-187.30 1.74Q-187.30-0.08-186.99-1.51Q-186.67-2.93-185.98-3.93Q-185.29-4.92-184.19-5.44Q-183.09-5.96-181.50-5.96L-181.50-5.96Q-180.11-5.96-179.11-5.52Q-178.11-5.08-177.48-4.25Q-176.84-3.43-176.54-2.23Q-176.24-1.03-176.24 0.48L-176.24 0.48L-176.24 1.63ZM-185.45 0.20L-177.98 0.20Q-178.02-2.22-178.88-3.35Q-179.74-4.48-181.56-4.48L-181.56-4.48Q-182.50-4.48-183.19-4.21Q-183.88-3.93-184.35-3.36Q-184.82-2.78-185.09-1.90Q-185.36-1.02-185.45 0.20L-185.45 0.20Z"/><path fill="#263248" opacity="1" d="M-165.38-11.06L-165.84-3.95L-167.14-3.95L-167.63-11.06L-165.38-11.06Z"/><path fill="#263248" opacity="1" d="M-146.59 5.13L-146.59 5.13Q-146.59 6.14-146.93 6.91Q-147.28 7.67-147.95 8.19Q-148.61 8.70-149.56 8.96Q-150.51 9.22-151.71 9.22L-151.71 9.22Q-152.82 9.22-153.65 8.98Q-154.49 8.74-155.10 8.37Q-155.70 8.00-156.09 7.56Q-156.48 7.11-156.69 6.69L-156.69 6.69L-155.27 5.80Q-154.79 6.66-153.92 7.18Q-153.05 7.70-151.68 7.70L-151.68 7.70Q-150.97 7.70-150.36 7.59Q-149.74 7.47-149.29 7.18Q-148.84 6.90-148.58 6.41Q-148.32 5.92-148.32 5.19L-148.32 5.19Q-148.32 4.61-148.49 4.20Q-148.65 3.78-149.07 3.46Q-149.48 3.14-150.19 2.88Q-150.91 2.62-152.01 2.33L-152.01 2.33Q-153.16 2.03-153.99 1.69Q-154.82 1.34-155.36 0.86Q-155.90 0.37-156.16-0.30Q-156.42-0.98-156.42-1.95L-156.42-1.95Q-156.42-2.74-156.12-3.47Q-155.83-4.21-155.22-4.75Q-154.61-5.30-153.69-5.63Q-152.78-5.96-151.53-5.96L-151.53-5.96Q-150.59-5.96-149.85-5.75Q-149.10-5.55-148.53-5.20Q-147.95-4.85-147.54-4.38Q-147.13-3.92-146.86-3.41L-146.86-3.41L-148.29-2.57Q-148.50-2.95-148.79-3.29Q-149.09-3.63-149.48-3.88Q-149.87-4.14-150.37-4.28Q-150.88-4.42-151.53-4.42L-151.53-4.42Q-153.00-4.42-153.84-3.78Q-154.68-3.14-154.68-1.98L-154.68-1.98Q-154.68-1.42-154.53-1.02Q-154.38-0.62-154.02-0.33Q-153.67-0.04-153.06 0.20Q-152.45 0.43-151.53 0.67L-151.53 0.67Q-150.15 1.04-149.20 1.43Q-148.25 1.81-147.67 2.32Q-147.09 2.82-146.84 3.50Q-146.59 4.17-146.59 5.13Z"/><path fill="#263248" opacity="1" d=""/><path fill="#263248" opacity="1" d="M-113.43 3.22L-113.43 3.22Q-113.43 4.68-113.90 5.73Q-114.36 6.79-115.26 7.47Q-116.15 8.15-117.47 8.47Q-118.79 8.80-120.49 8.80L-120.49 8.80L-126.16 8.80L-126.16-10.13L-120.76-10.13Q-119.05-10.13-117.89-9.86Q-116.73-9.59-116.02-9.06Q-115.30-8.53-115.00-7.73Q-114.69-6.94-114.69-5.87L-114.69-5.87Q-114.69-4.96-114.88-4.25Q-115.07-3.55-115.45-3.02Q-115.82-2.50-116.36-2.13Q-116.90-1.77-117.60-1.54L-117.60-1.54Q-116.71-1.42-115.95-1.08Q-115.18-0.75-114.62-0.17Q-114.06 0.42-113.75 1.25Q-113.43 2.08-113.43 3.22ZM-116.62-5.45L-116.62-5.45Q-116.62-6.31-116.85-6.89Q-117.08-7.47-117.61-7.83Q-118.15-8.18-119.02-8.33Q-119.90-8.49-121.18-8.49L-121.18-8.49L-124.31-8.49L-124.31-2.02L-121.29-2.02Q-118.87-2.02-117.74-2.83Q-116.62-3.65-116.62-5.45ZM-115.39 3.22L-115.39 3.22Q-115.39 2.04-115.77 1.34Q-116.15 0.63-116.86 0.25Q-117.57-0.13-118.56-0.25Q-119.56-0.36-120.79-0.36L-120.79-0.36L-124.31-0.36L-124.31 7.11L-121.32 7.11Q-119.93 7.11-118.82 6.96Q-117.72 6.81-116.96 6.40Q-116.19 5.98-115.79 5.21Q-115.39 4.45-115.39 3.22Z"/><path fill="#263248" opacity="1" d="M-94.50 1.63L-103.74 1.63Q-103.74 3.20-103.55 4.35Q-103.35 5.50-102.88 6.25Q-102.40 6.99-101.63 7.35Q-100.85 7.70-99.68 7.70L-99.68 7.70Q-99.11 7.70-98.63 7.60Q-98.15 7.50-97.74 7.26Q-97.32 7.02-96.94 6.64Q-96.55 6.27-96.18 5.72L-96.18 5.72L-94.78 6.64Q-95.16 7.25-95.62 7.73Q-96.07 8.21-96.67 8.54Q-97.26 8.86-98.02 9.04Q-98.78 9.22-99.77 9.22L-99.77 9.22Q-101.19 9.22-102.27 8.81Q-103.35 8.40-104.08 7.50Q-104.81 6.61-105.19 5.19Q-105.56 3.76-105.56 1.74L-105.56 1.74Q-105.56-0.08-105.25-1.51Q-104.93-2.93-104.24-3.93Q-103.55-4.92-102.45-5.44Q-101.35-5.96-99.77-5.96L-99.77-5.96Q-98.37-5.96-97.37-5.52Q-96.38-5.08-95.74-4.25Q-95.10-3.43-94.80-2.23Q-94.50-1.03-94.50 0.48L-94.50 0.48L-94.50 1.63ZM-103.72 0.20L-96.24 0.20Q-96.28-2.22-97.14-3.35Q-98.00-4.48-99.82-4.48L-99.82-4.48Q-100.76-4.48-101.45-4.21Q-102.15-3.93-102.62-3.36Q-103.09-2.78-103.36-1.90Q-103.62-1.02-103.72 0.20L-103.72 0.20Z"/><path fill="#263248" opacity="1" d="M-79.77 7.35L-79.32 8.77Q-79.87 8.96-80.54 9.09Q-81.21 9.22-81.90 9.22L-81.90 9.22Q-82.97 9.22-83.70 8.95Q-84.42 8.69-84.86 8.11Q-85.29 7.54-85.49 6.64Q-85.68 5.73-85.68 4.46L-85.68 4.46L-85.68-4.03L-87.84-4.03L-87.84-5.55L-85.68-5.55L-85.68-9.54L-83.91-9.54L-83.91-5.55L-80.14-5.55L-80.14-4.03L-83.91-4.03L-83.91 4.26Q-83.91 5.25-83.82 5.92Q-83.72 6.59-83.48 6.99Q-83.24 7.39-82.83 7.56Q-82.42 7.73-81.78 7.73L-81.78 7.73Q-81.30 7.73-80.74 7.61Q-80.17 7.50-79.77 7.35L-79.77 7.35Z"/><path fill="#263248" opacity="1" d="M-65.72 7.35L-65.27 8.77Q-65.82 8.96-66.49 9.09Q-67.16 9.22-67.86 9.22L-67.86 9.22Q-68.92 9.22-69.65 8.95Q-70.37 8.69-70.81 8.11Q-71.25 7.54-71.44 6.64Q-71.63 5.73-71.63 4.46L-71.63 4.46L-71.63-4.03L-73.79-4.03L-73.79-5.55L-71.63-5.55L-71.63-9.54L-69.87-9.54L-69.87-5.55L-66.09-5.55L-66.09-4.03L-69.87-4.03L-69.87 4.26Q-69.87 5.25-69.77 5.92Q-69.67 6.59-69.44 6.99Q-69.20 7.39-68.79 7.56Q-68.38 7.73-67.73 7.73L-67.73 7.73Q-67.25 7.73-66.69 7.61Q-66.12 7.50-65.72 7.35L-65.72 7.35Z"/><path fill="#263248" opacity="1" d="M-47.60 1.63L-56.84 1.63Q-56.84 3.20-56.65 4.35Q-56.45 5.50-55.98 6.25Q-55.50 6.99-54.72 7.35Q-53.95 7.70-52.78 7.70L-52.78 7.70Q-52.21 7.70-51.73 7.60Q-51.25 7.50-50.84 7.26Q-50.42 7.02-50.04 6.64Q-49.65 6.27-49.28 5.72L-49.28 5.72L-47.88 6.64Q-48.26 7.25-48.72 7.73Q-49.17 8.21-49.77 8.54Q-50.36 8.86-51.12 9.04Q-51.88 9.22-52.87 9.22L-52.87 9.22Q-54.29 9.22-55.37 8.81Q-56.45 8.40-57.18 7.50Q-57.91 6.61-58.29 5.19Q-58.66 3.76-58.66 1.74L-58.66 1.74Q-58.66-0.08-58.35-1.51Q-58.03-2.93-57.34-3.93Q-56.65-4.92-55.55-5.44Q-54.45-5.96-52.87-5.96L-52.87-5.96Q-51.47-5.96-50.47-5.52Q-49.47-5.08-48.84-4.25Q-48.20-3.43-47.90-2.23Q-47.60-1.03-47.60 0.48L-47.60 0.48L-47.60 1.63ZM-56.82 0.20L-49.34 0.20Q-49.38-2.22-50.24-3.35Q-51.10-4.48-52.92-4.48L-52.92-4.48Q-53.86-4.48-54.55-4.21Q-55.24-3.93-55.72-3.36Q-56.19-2.78-56.45-1.90Q-56.72-1.02-56.82 0.20L-56.82 0.20Z"/><path fill="#263248" opacity="1" d="M-31.50-5.48L-31.89-3.81Q-32.36-4.00-32.93-4.00L-32.93-4.00Q-33.58-4.00-34.12-3.84Q-34.66-3.67-35.18-3.34Q-35.70-3.02-36.24-2.53Q-36.78-2.05-37.44-1.39L-37.44-1.39L-37.44 8.80L-39.20 8.80L-39.20-5.55L-37.44-5.55L-37.44-3.07Q-36.82-3.69-36.27-4.19Q-35.71-4.68-35.16-5.03Q-34.61-5.38-34.04-5.57Q-33.47-5.76-32.84-5.76L-32.84-5.76Q-32.45-5.76-32.12-5.70Q-31.79-5.63-31.50-5.48L-31.50-5.48Z"/><path fill="#263248" opacity="1" d=""/><path fill="#263248" opacity="1" d="M7.71-10.13L3.26 8.80L0.86 8.80L-2.98-7.67L-6.85 8.80L-9.18 8.80L-13.59-10.13L-11.72-10.13L-7.93 6.31L-4.13-10.13L-1.84-10.13L2.09 6.44L5.89-10.13L7.71-10.13Z"/><path fill="#263248" opacity="1" d="M17.79-9.05L17.79-9.05Q17.79-8.35 17.50-8.10Q17.20-7.84 16.53-7.84L16.53-7.84Q15.84-7.84 15.57-8.16Q15.30-8.47 15.30-9.05L15.30-9.05Q15.30-9.66 15.58-9.94Q15.85-10.22 16.53-10.22L16.53-10.22Q17.23-10.22 17.51-9.95Q17.79-9.67 17.79-9.05ZM17.42 8.80L15.66 8.80L15.66-5.55L17.42-5.55L17.42 8.80Z"/><path fill="#263248" opacity="1" d="M33.11 7.35L33.56 8.77Q33.01 8.96 32.34 9.09Q31.67 9.22 30.98 9.22L30.98 9.22Q29.91 9.22 29.19 8.95Q28.46 8.69 28.02 8.11Q27.59 7.54 27.39 6.64Q27.20 5.73 27.20 4.46L27.20 4.46L27.20-4.03L25.04-4.03L25.04-5.55L27.20-5.55L27.20-9.54L28.97-9.54L28.97-5.55L32.74-5.55L32.74-4.03L28.97-4.03L28.97 4.26Q28.97 5.25 29.06 5.92Q29.16 6.59 29.40 6.99Q29.64 7.39 30.05 7.56Q30.46 7.73 31.10 7.73L31.10 7.73Q31.58 7.73 32.15 7.61Q32.71 7.50 33.11 7.35L33.11 7.35Z"/><path fill="#263248" opacity="1" d="M51.71 8.80L49.95 8.80L49.95-0.10Q49.95-1.32 49.84-2.13Q49.73-2.93 49.45-3.41Q49.18-3.89 48.71-4.08Q48.24-4.27 47.53-4.27L47.53-4.27Q46.58-4.27 45.34-3.57Q44.09-2.87 42.80-1.62L42.80-1.62L42.80 8.80L41.03 8.80L41.03-11.56L42.80-11.56L42.80-3.28Q43.40-3.84 44.01-4.33Q44.63-4.82 45.26-5.18Q45.90-5.55 46.54-5.75Q47.18-5.96 47.84-5.96L47.84-5.96Q48.99-5.96 49.74-5.61Q50.49-5.27 50.93-4.61Q51.37-3.95 51.54-2.98Q51.71-2.02 51.71-0.77L51.71-0.77L51.71 8.80Z"/><path fill="#263248" opacity="1" d=""/><path fill="#263248" opacity="1" d="M84.47-4.22L84.47-4.22Q84.47-2.50 84.07-1.29Q83.67-0.09 82.86 0.67Q82.05 1.43 80.82 1.77Q79.59 2.11 77.92 2.11L77.92 2.11L74.76 2.11L74.76 8.80L72.91 8.80L72.91-10.13L78.15-10.13Q81.40-10.13 82.94-8.66Q84.47-7.19 84.47-4.22ZM82.48-4.17L82.48-4.17Q82.48-5.40 82.18-6.22Q81.87-7.05 81.29-7.54Q80.71-8.03 79.87-8.25Q79.04-8.46 77.97-8.46L77.97-8.46L74.76-8.46L74.76 0.43L77.62 0.43Q78.89 0.43 79.81 0.22Q80.72 0.02 81.32-0.49Q81.91-1.01 82.20-1.90Q82.48-2.78 82.48-4.17Z"/><path fill="#263248" opacity="1" d="M94.76 8.80L92.99 8.80L92.99-11.56L94.76-11.56L94.76 8.80Z"/><path fill="#263248" opacity="1" d="M114.15 8.80L112.38 8.80L112.38 6.72Q111.77 7.25 111.20 7.71Q110.62 8.17 110.03 8.50Q109.43 8.84 108.80 9.03Q108.16 9.22 107.44 9.22L107.44 9.22Q106.42 9.22 105.67 8.91Q104.92 8.60 104.42 8.02Q103.92 7.44 103.68 6.62Q103.43 5.79 103.43 4.76L103.43 4.76Q103.43 3.64 103.76 2.81Q104.09 1.97 104.78 1.39Q105.48 0.81 106.57 0.47Q107.65 0.13 109.17-0.02L109.17-0.02L112.38-0.34L112.38-1.06Q112.38-1.96 112.18-2.60Q111.97-3.24 111.53-3.65Q111.09-4.06 110.40-4.24Q109.71-4.42 108.75-4.42L108.75-4.42Q107.94-4.42 107.35-4.28Q106.75-4.14 106.32-3.90Q105.89-3.66 105.60-3.34Q105.32-3.03 105.11-2.69L105.11-2.69L103.70-3.55Q104.00-4.04 104.42-4.48Q104.84-4.92 105.45-5.25Q106.05-5.57 106.87-5.76Q107.68-5.96 108.78-5.96L108.78-5.96Q110.22-5.96 111.24-5.68Q112.26-5.41 112.91-4.81Q113.56-4.22 113.85-3.27Q114.15-2.32 114.15-0.95L114.15-0.95L114.15 8.80ZM112.38 5.13L112.38 1.13L109.81 1.37Q108.58 1.50 107.72 1.72Q106.85 1.95 106.30 2.34Q105.75 2.73 105.50 3.31Q105.25 3.89 105.25 4.71L105.25 4.71Q105.25 6.27 105.88 6.97Q106.51 7.67 107.85 7.67L107.85 7.67Q108.35 7.67 108.84 7.52Q109.32 7.37 109.86 7.07Q110.39 6.76 111.00 6.27Q111.62 5.79 112.38 5.13L112.38 5.13Z"/><path fill="#263248" opacity="1" d="M120.95 13.79L121.46 12.30Q121.80 12.49 122.29 12.59Q122.78 12.69 123.25 12.69L123.25 12.69Q124.27 12.69 125.01 11.88Q125.75 11.07 126.35 9.47L126.35 9.47L126.91 8.04L121.67-5.55L123.59-5.55L127.84 5.83L132.15-5.55L134.03-5.55L127.84 10.14Q127.40 11.24 126.92 12.02Q126.43 12.80 125.87 13.28Q125.31 13.76 124.66 13.98Q124.00 14.20 123.22 14.20L123.22 14.20Q122.93 14.20 122.61 14.17Q122.29 14.14 121.98 14.09Q121.67 14.03 121.41 13.96Q121.14 13.88 120.95 13.79L120.95 13.79Z"/><path fill="#263248" opacity="1" d="M159.68 8.80L157.91 8.80L157.91-0.02Q157.91-1.31 157.83-2.13Q157.75-2.96 157.52-3.44Q157.28-3.92 156.88-4.10Q156.48-4.27 155.85-4.27L155.85-4.27Q155.30-4.27 154.79-4.08Q154.28-3.89 153.76-3.54Q153.24-3.19 152.70-2.71Q152.16-2.22 151.55-1.62L151.55-1.62L151.55 8.80L149.79 8.80L149.79-0.10Q149.79-1.38 149.70-2.19Q149.60-3.00 149.37-3.46Q149.13-3.92 148.72-4.10Q148.30-4.27 147.67-4.27L147.67-4.27Q147.15-4.27 146.62-4.06Q146.09-3.84 145.55-3.47Q145.02-3.10 144.49-2.62Q143.95-2.14 143.43-1.62L143.43-1.62L143.43 8.80L141.67 8.80L141.67-5.55L143.43-5.55L143.43-3.28Q143.97-3.85 144.53-4.34Q145.09-4.83 145.66-5.19Q146.22-5.55 146.81-5.75Q147.40-5.96 148.00-5.96L148.00-5.96Q149.45-5.96 150.29-5.27Q151.13-4.58 151.39-3.07L151.39-3.07Q151.99-3.73 152.55-4.26Q153.11-4.79 153.69-5.17Q154.28-5.55 154.89-5.75Q155.51-5.96 156.20-5.96L156.20-5.96Q157.30-5.96 157.97-5.57Q158.65-5.19 159.03-4.50Q159.42-3.81 159.55-2.86Q159.68-1.91 159.68-0.77L159.68-0.77L159.68 8.80Z"/><path fill="#263248" opacity="1" d="M178.80 8.80L177.03 8.80L177.03 6.72Q176.42 7.25 175.84 7.71Q175.27 8.17 174.67 8.50Q174.08 8.84 173.44 9.03Q172.81 9.22 172.08 9.22L172.08 9.22Q171.07 9.22 170.32 8.91Q169.57 8.60 169.07 8.02Q168.57 7.44 168.32 6.62Q168.08 5.79 168.08 4.76L168.08 4.76Q168.08 3.64 168.41 2.81Q168.73 1.97 169.43 1.39Q170.13 0.81 171.21 0.47Q172.30 0.13 173.82-0.02L173.82-0.02L177.03-0.34L177.03-1.06Q177.03-1.96 176.83-2.60Q176.62-3.24 176.18-3.65Q175.73-4.06 175.04-4.24Q174.35-4.42 173.40-4.42L173.40-4.42Q172.59-4.42 171.99-4.28Q171.40-4.14 170.97-3.90Q170.54-3.66 170.25-3.34Q169.96-3.03 169.76-2.69L169.76-2.69L168.35-3.55Q168.65-4.04 169.07-4.48Q169.49-4.92 170.09-5.25Q170.70-5.57 171.52-5.76Q172.33-5.96 173.42-5.96L173.42-5.96Q174.87-5.96 175.89-5.68Q176.91-5.41 177.56-4.81Q178.21-4.22 178.50-3.27Q178.80-2.32 178.80-0.95L178.80-0.95L178.80 8.80ZM177.03 5.13L177.03 1.13L174.46 1.37Q173.23 1.50 172.36 1.72Q171.49 1.95 170.95 2.34Q170.40 2.73 170.15 3.31Q169.90 3.89 169.90 4.71L169.90 4.71Q169.90 6.27 170.52 6.97Q171.15 7.67 172.49 7.67L172.49 7.67Q173.00 7.67 173.48 7.52Q173.97 7.37 174.50 7.07Q175.04 6.76 175.65 6.27Q176.27 5.79 177.03 5.13L177.03 5.13Z"/><path fill="#263248" opacity="1" d="M194.22 7.35L194.68 8.77Q194.13 8.96 193.46 9.09Q192.79 9.22 192.09 9.22L192.09 9.22Q191.02 9.22 190.30 8.95Q189.58 8.69 189.14 8.11Q188.70 7.54 188.51 6.64Q188.32 5.73 188.32 4.46L188.32 4.46L188.32-4.03L186.16-4.03L186.16-5.55L188.32-5.55L188.32-9.54L190.08-9.54L190.08-5.55L193.86-5.55L193.86-4.03L190.08-4.03L190.08 4.26Q190.08 5.25 190.18 5.92Q190.27 6.59 190.51 6.99Q190.75 7.39 191.16 7.56Q191.57 7.73 192.21 7.73L192.21 7.73Q192.69 7.73 193.26 7.61Q193.83 7.50 194.22 7.35L194.22 7.35Z"/><path fill="#263248" opacity="1" d="M212.35 1.63L203.10 1.63Q203.10 3.20 203.30 4.35Q203.50 5.50 203.97 6.25Q204.44 6.99 205.22 7.35Q206.00 7.70 207.16 7.70L207.16 7.70Q207.74 7.70 208.22 7.60Q208.70 7.50 209.11 7.26Q209.53 7.02 209.91 6.64Q210.30 6.27 210.66 5.72L210.66 5.72L212.07 6.64Q211.69 7.25 211.23 7.73Q210.77 8.21 210.18 8.54Q209.58 8.86 208.83 9.04Q208.07 9.22 207.08 9.22L207.08 9.22Q205.66 9.22 204.58 8.81Q203.50 8.40 202.77 7.50Q202.04 6.61 201.66 5.19Q201.29 3.76 201.29 1.74L201.29 1.74Q201.29-0.08 201.60-1.51Q201.91-2.93 202.60-3.93Q203.30-4.92 204.40-5.44Q205.50-5.96 207.08-5.96L207.08-5.96Q208.48-5.96 209.47-5.52Q210.47-5.08 211.11-4.25Q211.74-3.43 212.05-2.23Q212.35-1.03 212.35 0.48L212.35 0.48L212.35 1.63ZM203.13 0.20L210.61 0.20Q210.57-2.22 209.71-3.35Q208.85-4.48 207.03-4.48L207.03-4.48Q206.08-4.48 205.39-4.21Q204.70-3.93 204.23-3.36Q203.76-2.78 203.49-1.90Q203.23-1.02 203.13 0.20L203.13 0.20Z"/><path fill="#263248" opacity="1" d="M229.96 5.13L229.96 5.13Q229.96 6.14 229.61 6.91Q229.26 7.67 228.60 8.19Q227.94 8.70 226.99 8.96Q226.04 9.22 224.84 9.22L224.84 9.22Q223.73 9.22 222.89 8.98Q222.06 8.74 221.45 8.37Q220.84 8.00 220.45 7.56Q220.06 7.11 219.86 6.69L219.86 6.69L221.28 5.80Q221.76 6.66 222.63 7.18Q223.50 7.70 224.86 7.70L224.86 7.70Q225.57 7.70 226.19 7.59Q226.80 7.47 227.26 7.18Q227.71 6.90 227.97 6.41Q228.23 5.92 228.23 5.19L228.23 5.19Q228.23 4.61 228.06 4.20Q227.90 3.78 227.48 3.46Q227.06 3.14 226.35 2.88Q225.64 2.62 224.53 2.33L224.53 2.33Q223.39 2.03 222.56 1.69Q221.73 1.34 221.19 0.86Q220.65 0.37 220.39-0.30Q220.13-0.98 220.13-1.95L220.13-1.95Q220.13-2.74 220.43-3.47Q220.72-4.21 221.33-4.75Q221.94-5.30 222.85-5.63Q223.77-5.96 225.01-5.96L225.01-5.96Q225.96-5.96 226.70-5.75Q227.45-5.55 228.02-5.20Q228.59-4.85 229.01-4.38Q229.42-3.92 229.69-3.41L229.69-3.41L228.25-2.57Q228.05-2.95 227.75-3.29Q227.46-3.63 227.07-3.88Q226.68-4.14 226.18-4.28Q225.67-4.42 225.01-4.42L225.01-4.42Q223.55-4.42 222.71-3.78Q221.87-3.14 221.87-1.98L221.87-1.98Q221.87-1.42 222.02-1.02Q222.17-0.62 222.52-0.33Q222.88-0.04 223.49 0.20Q224.10 0.43 225.01 0.67L225.01 0.67Q226.39 1.04 227.34 1.43Q228.29 1.81 228.88 2.32Q229.46 2.82 229.71 3.50Q229.96 4.17 229.96 5.13Z"/></g><g transform="matrix(0.3 0 0 0.3 250.2972616539663 178.93025376762623)" style=""><path fill="#263248" opacity="1" d="M-285.23 18.63L-295.91 18.63L-295.91-11.61L-311.32-11.61L-311.32-21.10L-269.76-21.10L-269.76-11.61L-285.23-11.61L-285.23 18.63Z"/><path fill="#263248" opacity="1" d="M-254.40-25.85L-252.03-25.85L-244.91-21.70L-244.91-10.84Q-242.83-11.50-240.58-11.85Q-238.33-12.21-235.66-12.21L-235.66-12.21Q-230.68-12.21-227.42-11.05Q-224.15-9.89-222.20-7.88Q-220.24-5.86-219.47-3.16Q-218.70-0.47-218.70 2.62L-218.70 2.62L-218.70 18.63L-228.19 18.63L-228.19 3.80Q-228.19 2.38-228.31 1.02Q-228.42-0.35-229.19-1.36Q-229.97-2.36-231.57-2.99Q-233.17-3.61-236.19-3.61L-236.19-3.61Q-238.68-3.61-240.82-3.28Q-242.95-2.96-244.91-2.30L-244.91-2.30L-244.91 18.63L-254.40 18.63L-254.40-25.85Z"/><path fill="#263248" opacity="1" d="M-178.61-11.79L-178.61-2.84Q-181.34-3.31-184.13-3.31L-184.13-3.31Q-188.93-3.31-192.84-2.07L-192.84-2.07L-192.84 18.63L-202.33 18.63L-202.33-11.02L-199.96-11.02L-196.76-9.12Q-193.91-10.67-190.71-11.44Q-187.51-12.21-183.59-12.21L-183.59-12.21Q-182.23-12.21-180.98-12.09Q-179.74-11.97-178.61-11.79L-178.61-11.79Z"/><path fill="#263248" opacity="1" d="M-145.34 19.81L-146.47 19.81Q-151.45 19.81-154.71 18.66Q-157.98 17.50-159.93 15.49Q-161.89 13.47-162.66 10.77Q-163.43 8.07-163.43 4.99L-163.43 4.99L-163.43 2.62Q-163.43-0.47-162.66-3.16Q-161.89-5.86-159.93-7.88Q-157.98-9.89-154.71-11.05Q-151.45-12.21-146.47-12.21L-146.47-12.21L-144.81-12.21Q-139.77-12.21-136.57-11.47Q-133.37-10.72-131.59-9.42Q-129.81-8.12-129.16-6.40Q-128.50-4.68-128.50-2.72L-128.50-2.72L-128.50-2.13Q-128.50-0.35-128.95 1.25Q-129.39 2.85-131.05 4.10Q-132.71 5.35-135.95 6.06Q-139.18 6.77-144.75 6.77L-144.75 6.77Q-147.42 6.77-149.67 6.53Q-151.93 6.29-153.94 5.70L-153.94 5.70Q-153.88 6.95-153.53 7.98Q-153.17 9.02-152.19 9.73Q-151.22 10.45-149.44 10.83Q-147.66 11.22-144.69 11.22L-144.69 11.22Q-143.27 11.22-141.52 11.10Q-139.77 10.98-137.90 10.77Q-136.03 10.56-134.23 10.24Q-132.42 9.91-130.88 9.44L-130.88 9.44L-130.88 18.33Q-132.42 18.69-134.23 18.95Q-136.03 19.22-137.96 19.43Q-139.89 19.64-141.79 19.73Q-143.68 19.81-145.34 19.81L-145.34 19.81ZM-144.75-4.79L-144.75-4.79Q-147.12-4.79-148.72-4.53Q-150.33-4.26-151.33-3.73Q-152.34-3.19-152.88-2.42Q-153.41-1.65-153.65-0.64L-153.65-0.64Q-151.93-0.17-149.94 0.04Q-147.95 0.25-145.34 0.25L-145.34 0.25Q-142.74 0.25-141.25 0.04Q-139.77-0.17-139.06-0.50Q-138.35-0.82-138.17-1.21Q-137.99-1.59-137.99-2.01L-137.99-2.01Q-137.99-2.42-138.14-2.93Q-138.29-3.43-138.97-3.85Q-139.65-4.26-141.02-4.53Q-142.38-4.79-144.75-4.79Z"/><path fill="#263248" opacity="1" d="M-94.05 19.81L-95.18 19.81Q-100.16 19.81-103.42 18.66Q-106.68 17.50-108.64 15.49Q-110.59 13.47-111.37 10.77Q-112.14 8.07-112.14 4.99L-112.14 4.99L-112.14 2.62Q-112.14-0.47-111.37-3.16Q-110.59-5.86-108.64-7.88Q-106.68-9.89-103.42-11.05Q-100.16-12.21-95.18-12.21L-95.18-12.21L-93.52-12.21Q-88.48-12.21-85.27-11.47Q-82.07-10.72-80.29-9.42Q-78.51-8.12-77.86-6.40Q-77.21-4.68-77.21-2.72L-77.21-2.72L-77.21-2.13Q-77.21-0.35-77.65 1.25Q-78.10 2.85-79.76 4.10Q-81.42 5.35-84.65 6.06Q-87.88 6.77-93.46 6.77L-93.46 6.77Q-96.13 6.77-98.38 6.53Q-100.63 6.29-102.65 5.70L-102.65 5.70Q-102.59 6.95-102.23 7.98Q-101.88 9.02-100.90 9.73Q-99.92 10.45-98.14 10.83Q-96.36 11.22-93.40 11.22L-93.40 11.22Q-91.97 11.22-90.22 11.10Q-88.48 10.98-86.61 10.77Q-84.74 10.56-82.93 10.24Q-81.12 9.91-79.58 9.44L-79.58 9.44L-79.58 18.33Q-81.12 18.69-82.93 18.95Q-84.74 19.22-86.67 19.43Q-88.59 19.64-90.49 19.73Q-92.39 19.81-94.05 19.81L-94.05 19.81ZM-93.46-4.79L-93.46-4.79Q-95.83-4.79-97.43-4.53Q-99.03-4.26-100.04-3.73Q-101.05-3.19-101.58-2.42Q-102.11-1.65-102.35-0.64L-102.35-0.64Q-100.63-0.17-98.65 0.04Q-96.66 0.25-94.05 0.25L-94.05 0.25Q-91.44 0.25-89.96 0.04Q-88.48-0.17-87.76-0.50Q-87.05-0.82-86.87-1.21Q-86.70-1.59-86.70-2.01L-86.70-2.01Q-86.70-2.42-86.84-2.93Q-86.99-3.43-87.68-3.85Q-88.36-4.26-89.72-4.53Q-91.08-4.79-93.46-4.79Z"/><path fill="#263248" opacity="1" d="M-37.12 18.63L-47.80 18.63L-47.80-11.61L-63.21-11.61L-63.21-21.10L-21.64-21.10L-21.64-11.61L-37.12-11.61L-37.12 18.63Z"/><path fill="#263248" opacity="1" d="M8.12 19.81L7.00 19.81Q2.02 19.81-1.25 18.66Q-4.51 17.50-6.46 15.49Q-8.42 13.47-9.19 10.77Q-9.96 8.07-9.96 4.99L-9.96 4.99L-9.96 2.62Q-9.96-0.47-9.19-3.16Q-8.42-5.86-6.46-7.88Q-4.51-9.89-1.25-11.05Q2.02-12.21 7.00-12.21L7.00-12.21L8.66-12.21Q13.70-12.21 16.90-11.47Q20.10-10.72 21.88-9.42Q23.66-8.12 24.31-6.40Q24.97-4.68 24.97-2.72L24.97-2.72L24.97-2.13Q24.97-0.35 24.52 1.25Q24.08 2.85 22.42 4.10Q20.76 5.35 17.52 6.06Q14.29 6.77 8.72 6.77L8.72 6.77Q6.05 6.77 3.80 6.53Q1.54 6.29-0.47 5.70L-0.47 5.70Q-0.42 6.95-0.06 7.98Q0.30 9.02 1.27 9.73Q2.25 10.45 4.03 10.83Q5.81 11.22 8.78 11.22L8.78 11.22Q10.20 11.22 11.95 11.10Q13.70 10.98 15.57 10.77Q17.43 10.56 19.24 10.24Q21.05 9.91 22.59 9.44L22.59 9.44L22.59 18.33Q21.05 18.69 19.24 18.95Q17.43 19.22 15.51 19.43Q13.58 19.64 11.68 19.73Q9.78 19.81 8.12 19.81L8.12 19.81ZM8.72-4.79L8.72-4.79Q6.35-4.79 4.74-4.53Q3.14-4.26 2.13-3.73Q1.13-3.19 0.59-2.42Q0.06-1.65-0.18-0.64L-0.18-0.64Q1.54-0.17 3.53 0.04Q5.51 0.25 8.12 0.25L8.12 0.25Q10.73 0.25 12.22 0.04Q13.70-0.17 14.41-0.50Q15.12-0.82 15.30-1.21Q15.48-1.59 15.48-2.01L15.48-2.01Q15.48-2.42 15.33-2.93Q15.18-3.43 14.50-3.85Q13.82-4.26 12.45-4.53Q11.09-4.79 8.72-4.79Z"/><path fill="#263248" opacity="1" d="M41.93-11.02L44.30-11.02L47.50-9.12Q50.35-10.67 53.55-11.44Q56.75-12.21 60.66-12.21L60.66-12.21Q65.65-12.21 68.91-11.05Q72.17-9.89 74.13-7.88Q76.08-5.86 76.85-3.16Q77.62-0.47 77.62 2.62L77.62 2.62L77.62 18.63L68.14 18.63L68.14 3.80Q68.14 2.38 68.02 1.02Q67.90-0.35 67.13-1.36Q66.36-2.36 64.76-2.99Q63.15-3.61 60.13-3.61L60.13-3.61Q57.64-3.61 55.50-3.28Q53.37-2.96 51.41-2.30L51.41-2.30L51.41 18.63L41.93 18.63L41.93-11.02Z"/><path fill="#263248" opacity="1" d=""/><path fill="#263248" opacity="1" d="M157.26 18.63L119.25 18.63L119.25-21.10L129.93-21.10L129.93 9.14L157.26 9.14L157.26 18.63Z"/><path fill="#263248" opacity="1" d="M208.97 0.84L208.97 18.63L206.60 18.63L203.40 16.79Q200.37 18.33 197.11 19.07Q193.85 19.81 189.76 19.81L189.76 19.81Q184.96 19.81 181.78 19.01Q178.61 18.21 176.71 16.82Q174.82 15.43 174.05 13.62Q173.27 11.81 173.27 9.85L173.27 9.85L173.27 9.26Q173.27 7.42 174.08 5.76Q174.88 4.10 176.80 2.85Q178.73 1.61 181.84 0.90Q184.96 0.19 189.58 0.19L189.58 0.19Q195.39 0.19 199.49 1.31L199.49 1.31Q199.43 0.13 199.16-0.79Q198.89-1.71 198.00-2.33Q197.11-2.96 195.36-3.28Q193.61-3.61 190.71-3.61L190.71-3.61Q189.11-3.61 187.27-3.49Q185.43-3.37 183.56-3.16Q181.70-2.96 179.89-2.60Q178.08-2.25 176.54-1.83L176.54-1.83L176.54-10.72Q178.08-11.08 179.89-11.35Q181.70-11.61 183.62-11.82Q185.55-12.03 187.42-12.12Q189.29-12.21 191.01-12.21L191.01-12.21Q195.99-12.21 199.40-11.35Q202.81-10.49 204.94-8.86Q207.08-7.23 208.02-4.79Q208.97-2.36 208.97 0.84L208.97 0.84ZM190.77 12.40L190.77 12.40Q195.45 12.40 199.49 11.16L199.49 11.16L199.49 8.37Q197.47 7.84 195.22 7.57Q192.96 7.30 190.18 7.30L190.18 7.30Q187.51 7.30 186.02 7.54Q184.54 7.78 183.83 8.16Q183.12 8.55 182.94 9.02Q182.76 9.50 182.76 9.91L182.76 9.91Q182.76 10.45 182.94 10.89Q183.12 11.33 183.92 11.69Q184.72 12.05 186.32 12.22Q187.92 12.40 190.77 12.40Z"/><path fill="#263248" opacity="1" d="M234.83-21.70L234.83-10.84Q236.90-11.50 239.16-11.85Q241.41-12.21 244.08-12.21L244.08-12.21Q249.06-12.21 252.32-11.05Q255.58-9.89 257.54-7.88Q259.50-5.86 260.27-3.16Q261.04-0.47 261.04 2.62L261.04 2.62L261.04 4.99Q261.04 8.07 260.27 10.77Q259.50 13.47 257.54 15.49Q255.58 17.50 252.29 18.66Q249.00 19.81 243.96 19.81L243.96 19.81L242.30 19.81Q237.32 19.81 234.06 18.66Q230.80 17.50 228.84 15.49Q226.88 13.47 226.11 10.77Q225.34 8.07 225.34 4.99L225.34 4.99L225.34-25.85L227.71-25.85L234.83-21.70ZM243.55-3.61L243.55-3.61Q241.05-3.61 238.92-3.28Q236.78-2.96 234.83-2.30L234.83-2.30L234.83 3.80Q234.83 5.23 234.95 6.59Q235.07 7.95 235.87 8.96Q236.67 9.97 238.33 10.59Q239.99 11.22 243.13 11.22L243.13 11.22Q246.27 11.22 247.99 10.59Q249.71 9.97 250.51 8.96Q251.31 7.95 251.43 6.59Q251.55 5.23 251.55 3.80L251.55 3.80Q251.55 2.38 251.43 1.02Q251.31-0.35 250.54-1.36Q249.77-2.36 248.17-2.99Q246.57-3.61 243.55-3.61Z"/><path fill="#263248" opacity="1" d="M293.24 11.81L293.24 11.81Q295.49 11.81 296.80 11.63Q298.10 11.45 298.75 11.19Q299.41 10.92 299.58 10.59Q299.76 10.27 299.76 9.91L299.76 9.91Q299.76 8.55 298.13 8.25Q296.50 7.95 292.94 7.84L292.94 7.84Q291.76 7.84 290.13 7.72Q288.49 7.60 286.75 7.30Q285.00 7.01 283.28 6.41Q281.56 5.82 280.22 4.75Q278.89 3.68 278.06 2.08Q277.23 0.48 277.23-1.83L277.23-1.83L277.23-2.42Q277.23-4.38 277.97-6.13Q278.71-7.88 280.55-9.24Q282.39-10.61 285.44-11.41Q288.49-12.21 293.12-12.21L293.12-12.21L294.78-12.21Q298.16-12.21 301.36-11.82Q304.56-11.44 307.59-10.72L307.59-10.72L307.59-2.48Q304.03-3.31 300.53-3.76Q297.03-4.20 293.30-4.20L293.30-4.20Q290.99-4.20 289.68-4.02Q288.38-3.85 287.72-3.55Q287.07-3.25 286.89-2.93Q286.72-2.60 286.72-2.25L286.72-2.25Q286.72-1.00 288.32-0.67Q289.92-0.35 293.53-0.23L293.53-0.23Q294.66-0.17 296.29-0.11Q297.92-0.05 299.67 0.28Q301.42 0.60 303.14 1.19Q304.86 1.79 306.23 2.85Q307.59 3.92 308.42 5.52Q309.25 7.12 309.25 9.44L309.25 9.44L309.25 10.03Q309.25 11.99 308.51 13.74Q307.77 15.49 305.93 16.85Q304.09 18.21 301.04 19.01Q297.98 19.81 293.36 19.81L293.36 19.81L291.70 19.81Q287.84 19.81 284.22 19.43Q280.61 19.04 277.11 18.33L277.11 18.33L277.11 10.09Q281.02 10.92 285.20 11.36Q289.38 11.81 293.24 11.81Z"/></g></svg>
